<?xml version="1.0" encoding="utf-8"?>
<!-- Generator: Adobe Illustrator 14.0.0, SVG Export Plug-In . SVG Version: 6.00 Build 43363)  -->
<!DOCTYPE svg PUBLIC "-//W3C//DTD SVG 1.1//EN" "http://www.w3.org/Graphics/SVG/1.1/DTD/svg11.dtd">
<svg version="1.1" id="レイヤー_1" xmlns="http://www.w3.org/2000/svg" xmlns:xlink="http://www.w3.org/1999/xlink" x="0px"
	 y="0px" width="16px" height="16px" viewBox="0 0 16 16" enable-background="new 0 0 16 16" xml:space="preserve">
<g>
	<path fill="#F9F9FA" d="M7.333,9H2.667C1.748,9,1,8.252,1,7.333V2.667C1,1.748,1.748,1,2.667,1h4.667C8.252,1,9,1.748,9,2.667
		v4.667C9,8.252,8.252,9,7.333,9L7.333,9z M2.667,2C2.299,2,2,2.299,2,2.667v4.667C2,7.701,2.299,8,2.667,8h4.667
		C7.701,8,8,7.701,8,7.333V2.667C8,2.299,7.701,2,7.333,2H2.667L2.667,2z"/>
	<path fill="#F9F9FA" d="M4.5,7.5c0,0-0.001,0-0.002,0c-0.16,0-0.31-0.078-0.403-0.207L2.47,5.043
		C2.308,4.819,2.358,4.506,2.582,4.345C2.806,4.183,3.119,4.233,3.28,4.457L4.503,6.15l2.344-3.196
		c0.163-0.222,0.476-0.272,0.699-0.107C7.769,3.01,7.816,3.323,7.653,3.546l-2.75,3.75C4.809,7.424,4.659,7.5,4.5,7.5L4.5,7.5z"/>
</g>
<g>
	<path fill="#F9F9FA" d="M10.333,4H9.5v1h0.833C10.701,5,11,5.299,11,5.667v4.667C11,10.701,10.701,11,10.333,11H5.667
		C5.299,11,5,10.701,5,10.333V9.541H4v0.792C4,11.252,4.748,12,5.667,12h4.667C11.252,12,12,11.252,12,10.333V5.667
		C12,4.748,11.252,4,10.333,4z"/>
	<path fill="#F9F9FA" d="M7.5,10.5c0.159,0,0.309-0.076,0.403-0.204l0.697-0.95C8.37,9.466,8.111,9.541,7.833,9.541H6.552
		l0.543,0.752C7.188,10.424,7.372,10.504,7.5,10.5z"/>
	<path fill="#F9F9FA" d="M9.472,8.158l1.182-1.612c0.163-0.223,0.115-0.536-0.107-0.699C10.325,5.684,10.01,5.73,9.847,5.954
		L9.5,6.427v1.448C9.5,7.972,9.487,8.065,9.472,8.158z"/>
</g>
<g>
	<path fill="#F9F9FA" d="M13.333,7H12.5v1h0.833C13.701,8,14,8.299,14,8.667v4.667C14,13.701,13.701,14,13.333,14H8.667
		C8.299,14,8,13.701,8,13.333v-0.708H7v0.708C7,14.252,7.748,15,8.667,15h4.667C14.252,15,15,14.252,15,13.333V8.667
		C15,7.748,14.252,7,13.333,7z"/>
	<path fill="#F9F9FA" d="M10.5,13.5c0.159,0,0.309-0.076,0.403-0.204l0.595-0.811c-0.204,0.089-0.428,0.14-0.664,0.14H9.612
		l0.482,0.668C10.188,13.423,10.352,13.493,10.5,13.5z"/>
	<path fill="#F9F9FA" d="M12.481,11.145l1.172-1.599c0.163-0.223,0.115-0.536-0.107-0.699c-0.221-0.163-0.535-0.116-0.699,0.107
		L12.5,9.427v1.532C12.5,11.022,12.488,11.083,12.481,11.145z"/>
</g>
</svg>
