<?xml version="1.0" encoding="utf-8"?>
<!-- Generator: Adobe Illustrator 14.0.0, SVG Export Plug-In . SVG Version: 6.00 Build 43363)  -->
<!DOCTYPE svg PUBLIC "-//W3C//DTD SVG 1.1//EN" "http://www.w3.org/Graphics/SVG/1.1/DTD/svg11.dtd">
<svg version="1.1" id="レイヤー_1" xmlns="http://www.w3.org/2000/svg" xmlns:xlink="http://www.w3.org/1999/xlink" x="0px"
	 y="0px" width="16px" height="16px" viewBox="0 0 16 16" enable-background="new 0 0 16 16" xml:space="preserve">
<path fill="#0C0C0D" d="M13,7h-0.5v1.5H13c0.232,0,0.424,0.171,0.478,0.39C13.295,8.852,13.1,8.912,12.979,9.07L12.5,9.692v0.585
	c0,1.227-0.996,2.223-2.223,2.223h-0.121l0.318,0.425c0.094,0.125,0.241,0.199,0.397,0.2c0.001,0,0.002,0,0.003,0
	c0.155,0,0.302-0.072,0.396-0.195l2.229-2.897V13c0,0.271-0.229,0.5-0.5,0.5H9c-0.271,0-0.5-0.229-0.5-0.5v-0.5H7V13
	c0,1.103,0.897,2,2,2h4c1.103,0,2-0.897,2-2V9C15,7.897,14.103,7,13,7z"/>
<path fill="#0C0C0D" d="M10,4H9.5v1.5H10c0.232,0,0.424,0.171,0.478,0.39C10.295,5.852,10.1,5.912,9.979,6.07L9.5,6.692v0.585
	C9.5,8.504,8.503,9.5,7.278,9.5H7.156l0.319,0.425c0.094,0.126,0.244,0.152,0.4,0.2c0.155,0,0.302-0.072,0.396-0.195L10.5,7.033V10
	c0,0.271-0.229,0.5-0.5,0.5H6c-0.271,0-0.5-0.229-0.5-0.5V9.5H4V10c0,1.103,0.897,2,2,2h4c1.103,0,2-0.897,2-2V6
	C12,4.897,11.103,4,10,4z"/>
<path fill="#0C0C0D" d="M7,1H3C1.897,1,1,1.897,1,3v4c0,1.103,0.897,2,2,2h4c1.103,0,2-0.897,2-2V3C9,1.897,8.103,1,7,1z M7,7.5H3
	C2.729,7.5,2.5,7.271,2.5,7V3c0-0.271,0.229-0.5,0.5-0.5h4c0.232,0,0.424,0.171,0.477,0.389C7.295,2.851,7.1,2.912,6.979,3.07
	L4.88,5.798L3.775,4.325c-0.166-0.222-0.48-0.267-0.7-0.1c-0.221,0.166-0.266,0.479-0.1,0.7l1.5,2c0.094,0.125,0.256,0.165,0.4,0.2
	c0.155,0,0.302-0.072,0.396-0.195L7.5,4.033V7C7.5,7.271,7.271,7.5,7,7.5z"/>
</svg>
