<?xml version="1.0" encoding="utf-8"?>
<!-- Generator: Adobe Illustrator 14.0.0, SVG Export Plug-In . SVG Version: 6.00 Build 43363)  -->
<!DOCTYPE svg PUBLIC "-//W3C//DTD SVG 1.1//EN" "http://www.w3.org/Graphics/SVG/1.1/DTD/svg11.dtd">
<svg version="1.1" id="レイヤー_1" xmlns="http://www.w3.org/2000/svg" xmlns:xlink="http://www.w3.org/1999/xlink" x="0px"
	 y="0px" width="20px" height="20px" viewBox="0 0 20 20" enable-background="new 0 0 20 20" xml:space="preserve">
<style>
	:root {
	  color-scheme: light dark;
	}
	g {
	  fill: #0C0C0D;
	}
	@media (prefers-color-scheme: dark) {
	  g {
	    fill: #F9F9FA;
	  }
	}
</style>
<g fill-rule="evenodd">
<path d="M16.5,9h-1v2h1c0.271,0,0.5,0.229,0.5,0.5v5c0,0.271-0.229,0.5-0.5,0.5h-5c-0.271,0-0.5-0.229-0.5-0.5v-1H9
	v1c0,1.379,1.122,2.5,2.5,2.5h5c1.379,0,2.5-1.121,2.5-2.5v-5C19,10.122,17.879,9,16.5,9z"/>
<path d="M13.5,16.5c0.159,0,0.309-0.076,0.403-0.204l2.75-3.75c0.163-0.223,0.115-0.536-0.107-0.699
	c-0.22-0.162-0.535-0.117-0.699,0.107L15.5,12.427V13c0,1.379-1.121,2.5-2.5,2.5h-0.478l0.572,0.793
	C13.189,16.424,13.318,16.46,13.5,16.5z"/>
<path d="M12.5,5h-1v2h1C12.771,7,13,7.229,13,7.5v5c0,0.271-0.229,0.5-0.5,0.5h-5C7.229,13,7,12.771,7,12.5v-1H5v1
	C5,13.879,6.122,15,7.5,15h5c1.379,0,2.5-1.121,2.5-2.5v-5C15,6.122,13.879,5,12.5,5z"/>
<path d="M9.5,12.5c0.159,0,0.309-0.076,0.403-0.204l2.75-3.75c0.163-0.223,0.115-0.536-0.107-0.699
	c-0.221-0.163-0.536-0.116-0.699,0.107L11.5,8.427V9c0,1.378-1.122,2.5-2.5,2.5H8.522l0.573,0.793
	C9.188,12.424,9.372,12.504,9.5,12.5z"/>
<path d="M8.5,11h-5C2.122,11,1,9.878,1,8.5v-5C1,2.122,2.122,1,3.5,1h5C9.878,1,11,2.122,11,3.5v5
	C11,9.878,9.878,11,8.5,11L8.5,11z M3.5,3C3.229,3,3,3.229,3,3.5v5C3,8.771,3.229,9,3.5,9h5C8.771,9,9,8.771,9,8.5v-5
	C9,3.229,8.771,3,8.5,3H3.5L3.5,3z"/>
<path d="M5.5,8.5c0,0-0.001,0-0.002,0c-0.16,0-0.31-0.078-0.403-0.207L3.47,6.043
	C3.308,5.819,3.358,5.506,3.582,5.345C3.807,5.182,4.119,5.233,4.28,5.457L5.503,7.15l2.344-3.196
	C8.01,3.731,8.322,3.683,8.546,3.847C8.769,4.01,8.816,4.323,8.653,4.546l-2.75,3.75C5.809,8.424,5.659,8.5,5.5,8.5L5.5,8.5z"/>
</g>
</svg>
