<?xml version="1.0" encoding="utf-8"?>
<!-- Generator: Adobe Illustrator 14.0.0, SVG Export Plug-In . SVG Version: 6.00 Build 43363)  -->
<!DOCTYPE svg PUBLIC "-//W3C//DTD SVG 1.1//EN" "http://www.w3.org/Graphics/SVG/1.1/DTD/svg11.dtd">
<svg version="1.1" id="レイヤー_1" xmlns="http://www.w3.org/2000/svg" xmlns:xlink="http://www.w3.org/1999/xlink" x="0px"
	 y="0px" width="24px" height="24px" viewBox="0 0 24 24" enable-background="new 0 0 24 24" xml:space="preserve">
<style>
	:root {
		color-scheme: light dark;
	}
	g:target {
		fill-rule: evenodd;
	}
	g.theme:target {
		fill: transparent /* TO BE REPLACED WITH THEME COLOR */;
	}
	g.prefer-color-scheme.default:target {
		fill: rgb(21, 20, 26); /* https://searchfox.org/mozilla-central/rev/d6576544301cacc0e393fbc919c53e4e6b0d46ec/toolkit/themes/shared/in-content/common-shared.css#16 */
	}
	g.prefer-color-scheme.toolbar:target {
		fill: rgb(91, 91, 102); /* https://searchfox.org/mozilla-central/rev/d6576544301cacc0e393fbc919c53e4e6b0d46ec/browser/themes/shared/browser-custom-colors.css#74 */
	}
	@media (prefers-color-scheme: dark) {
		g.prefer-color-scheme.default:target,
		g.prefer-color-scheme.toolbar:target {
			fill: rgb(251, 251, 254); /* https://searchfox.org/mozilla-central/rev/d6576544301cacc0e393fbc919c53e4e6b0d46ec/browser/themes/shared/browser-custom-colors.css#74 */
		}
	}
	g:not(:target) {
		display: none;
	}
</style>
<symbol id="icon">
<path d="M20.5,11h-2v2h2c0.271,0,0.5,0.229,0.5,0.5v7c0,0.271-0.229,0.5-0.5,0.5h-7c-0.271,0-0.5-0.229-0.5-0.5v-2
	h-2v2c0,1.379,1.122,2.5,2.5,2.5h7c1.379,0,2.5-1.121,2.5-2.5v-7C23,12.122,21.879,11,20.5,11z"/>
<path d="M16.24,20.5c0.003,0,0.007,0,0.01,0c0.169,0,0.327-0.086,0.42-0.229l3.693-5.707
	c0.149-0.231,0.084-0.541-0.148-0.691c-0.229-0.146-0.541-0.085-0.691,0.148L18.5,15.604V16c0,1.135-0.765,2.085-1.803,2.389
	L16.27,19.05l-0.325-0.55h-1.161l1.036,1.754C15.907,20.403,16.066,20.496,16.24,20.5z"/>
<path d="M15.5,6h-2v2h2C15.771,8,16,8.229,16,8.5v7c0,0.271-0.229,0.5-0.5,0.5h-7C8.229,16,8,15.771,8,15.5v-2H6v2
	C6,16.879,7.122,18,8.5,18h7c1.379,0,2.5-1.121,2.5-2.5v-7C18,7.122,16.879,6,15.5,6z"/>
<path d="M11.24,15.5c0.003,0,0.007,0,0.01,0c0.169,0,0.328-0.086,0.42-0.229l3.693-5.707
	c0.149-0.231,0.084-0.541-0.148-0.691c-0.229-0.148-0.541-0.084-0.691,0.148L13.5,10.603V11c0,1.135-0.765,2.085-1.803,2.389
	L11.27,14.05l-0.325-0.55H9.783l1.036,1.754C10.908,15.403,11.066,15.496,11.24,15.5z"/>
<path d="M10.5,13h-7C2.122,13,1,11.878,1,10.5v-7C1,2.122,2.122,1,3.5,1h7C11.878,1,13,2.122,13,3.5v7
	C13,11.878,11.878,13,10.5,13L10.5,13z M3.5,3C3.229,3,3,3.229,3,3.5v7C3,10.771,3.229,11,3.5,11h7c0.271,0,0.5-0.229,0.5-0.5v-7
	C11,3.229,10.771,3,10.5,3H3.5L3.5,3z"/>
<path d="M6.25,10.5c-0.003,0-0.007,0-0.01,0c-0.173-0.003-0.332-0.097-0.42-0.246L3.637,6.562
	c-0.14-0.238-0.062-0.544,0.176-0.685s0.543-0.062,0.685,0.176L6.27,9.05l3.253-5.028c0.15-0.232,0.459-0.299,0.691-0.148
	c0.232,0.15,0.298,0.46,0.148,0.691L6.67,10.271C6.578,10.414,6.419,10.5,6.25,10.5L6.25,10.5z"/>
</symbol>
<g id="toolbar-theme" class="theme toolbar">
	<use href="#icon"/>
</g>
<g id="default-theme" class="theme default">
	<use href="#icon"/>
</g>
<g id="toolbar" class="prefer-color-scheme toolbar">
	<use href="#icon"/>
</g>
<g id="default" class="prefer-color-scheme default">
	<use href="#icon"/>
</g>
</svg>
