<?xml version="1.0" encoding="utf-8"?>
<!-- Generator: Adobe Illustrator 14.0.0, SVG Export Plug-In . SVG Version: 6.00 Build 43363)  -->
<!DOCTYPE svg PUBLIC "-//W3C//DTD SVG 1.1//EN" "http://www.w3.org/Graphics/SVG/1.1/DTD/svg11.dtd">
<svg version="1.1" id="レイヤー_1" xmlns="http://www.w3.org/2000/svg" xmlns:xlink="http://www.w3.org/1999/xlink" x="0px"
	 y="0px" width="64px" height="64px" viewBox="0 0 64 64" enable-background="new 0 0 64 64" xml:space="preserve">
<style>
	g:target {
		fill: #F9F9FA;
		fill-rule: evenodd;
	}
	g:not(#default):not(:target),
	g:target ~ #default {
		display: none;
	}
</style>
<symbol id="icon-24">
	<path d="M53.25,29.5h-5v5h5c0.676,0,1.25,0.572,1.25,1.25v17.5c0,0.678-0.574,1.25-1.25,1.25h-17.5c-0.68,0-1.25-0.572-1.25-1.25
		v-5h-5v5c0,3.447,2.805,6.25,6.25,6.25h17.5c3.447,0,6.25-2.803,6.25-6.25v-17.5C59.5,32.305,56.698,29.5,53.25,29.5z"/>
	<path d="M42.6,53.25c0.008,0,0.018,0,0.025,0c0.422,0,0.817-0.215,1.049-0.572l9.232-14.268c0.373-0.578,0.209-1.353-0.369-1.728
		c-0.574-0.365-1.354-0.212-1.729,0.37L48.25,41.01V42c0,2.838-1.914,5.213-4.51,5.973l-1.066,1.652l-0.813-1.375h-2.9l2.588,4.385
		C41.768,53.008,42.163,53.24,42.6,53.25z"/>
	<path d="M40.75,17h-5v5h5c0.676,0,1.25,0.572,1.25,1.25v17.5c0,0.678-0.574,1.25-1.25,1.25h-17.5c-0.68,0-1.25-0.572-1.25-1.25v-5
		h-5v5c0,3.447,2.805,6.25,6.25,6.25h17.5c3.447,0,6.25-2.803,6.25-6.25v-17.5C47,19.805,44.198,17,40.75,17z"/>
	<path d="M30.1,40.75c0.008,0,0.018,0,0.025,0c0.422,0,0.82-0.215,1.049-0.572l9.231-14.268c0.374-0.578,0.21-1.353-0.368-1.728
		c-0.574-0.37-1.354-0.21-1.729,0.37l-2.559,3.955V29.5c0,2.838-1.914,5.213-4.51,5.973l-1.066,1.652l-0.813-1.375h-2.903
		l2.588,4.385C29.27,40.508,29.663,40.74,30.1,40.75z"/>
	<path d="M28.25,34.5h-17.5c-3.445,0-6.25-2.805-6.25-6.25v-17.5c0-3.445,2.805-6.25,6.25-6.25h17.5c3.444,0,6.25,2.805,6.25,6.25
		v17.5C34.5,31.695,31.695,34.5,28.25,34.5L28.25,34.5z M10.75,9.5c-0.68,0-1.25,0.572-1.25,1.25v17.5c0,0.678,0.57,1.25,1.25,1.25
		h17.5c0.676,0,1.25-0.572,1.25-1.25v-17.5c0-0.678-0.574-1.25-1.25-1.25H10.75L10.75,9.5z"/>
	<path d="M17.625,28.25c-0.008,0-0.018,0-0.025,0c-0.434-0.007-0.83-0.243-1.052-0.615l-5.456-9.229
		c-0.35-0.595-0.154-1.36,0.439-1.713c0.596-0.353,1.357-0.155,1.713,0.44l4.43,7.492l8.132-12.57
		c0.376-0.58,1.147-0.747,1.729-0.37c0.579,0.375,0.745,1.15,0.368,1.727l-9.229,14.266C18.446,28.035,18.047,28.25,17.625,28.25
		L17.625,28.25z"/>
</symbol>
<g id="toolbar" fill-opacity="0.8">
	<use href="#icon-24"/>
</g>
<g id="default" fill-opacity="1">
	<use href="#icon-24"/>
</g>
</svg>
